<mxfile host="Electron" agent="Mozilla/5.0 (Windows NT 10.0; Win64; x64) AppleWebKit/537.36 (KHTML, like Gecko) draw.io/24.7.8 Chrome/128.0.6613.36 Electron/32.0.1 Safari/537.36" version="24.7.8">
  <diagram name="PÃ¡gina-1" id="ER95GF50x-3WCmdrgDCE">
    <mxGraphModel dx="1835" dy="1322" grid="1" gridSize="10" guides="1" tooltips="1" connect="1" arrows="1" fold="1" page="1" pageScale="1" pageWidth="827" pageHeight="1169" math="0" shadow="0">
      <root>
        <mxCell id="0" />
        <mxCell id="1" parent="0" />
        <mxCell id="XQaFh8cEbcPCIkuJs7Az-1" value="&lt;font style=&quot;font-size: 20px;&quot;&gt;acode_club_lectura(X)&lt;/font&gt;" style="text;html=1;align=center;verticalAlign=middle;whiteSpace=wrap;rounded=0;" vertex="1" parent="1">
          <mxGeometry x="140" y="70" width="220" height="30" as="geometry" />
        </mxCell>
        <mxCell id="XQaFh8cEbcPCIkuJs7Az-2" value="&lt;font style=&quot;font-size: 20px;&quot;&gt;muller(X)&lt;/font&gt;" style="text;html=1;align=center;verticalAlign=middle;whiteSpace=wrap;rounded=0;" vertex="1" parent="1">
          <mxGeometry x="-30" y="150" width="220" height="30" as="geometry" />
        </mxCell>
        <mxCell id="XQaFh8cEbcPCIkuJs7Az-3" value="&lt;font style=&quot;font-size: 20px;&quot;&gt;adulto(X)&lt;/font&gt;" style="text;html=1;align=center;verticalAlign=middle;whiteSpace=wrap;rounded=0;" vertex="1" parent="1">
          <mxGeometry x="140" y="150" width="220" height="30" as="geometry" />
        </mxCell>
        <mxCell id="XQaFh8cEbcPCIkuJs7Az-4" value="&lt;font style=&quot;font-size: 20px;&quot;&gt;gusto(X, ler)&lt;/font&gt;" style="text;html=1;align=center;verticalAlign=middle;whiteSpace=wrap;rounded=0;" vertex="1" parent="1">
          <mxGeometry x="350" y="150" width="220" height="30" as="geometry" />
        </mxCell>
        <mxCell id="XQaFh8cEbcPCIkuJs7Az-7" value="" style="endArrow=none;html=1;rounded=0;entryX=0.5;entryY=1;entryDx=0;entryDy=0;exitX=0.5;exitY=0;exitDx=0;exitDy=0;strokeWidth=2;" edge="1" parent="1" source="XQaFh8cEbcPCIkuJs7Az-2" target="XQaFh8cEbcPCIkuJs7Az-1">
          <mxGeometry width="50" height="50" relative="1" as="geometry">
            <mxPoint x="220" y="360" as="sourcePoint" />
            <mxPoint x="270" y="310" as="targetPoint" />
          </mxGeometry>
        </mxCell>
        <mxCell id="XQaFh8cEbcPCIkuJs7Az-8" value="" style="endArrow=none;html=1;rounded=0;exitX=0.5;exitY=0;exitDx=0;exitDy=0;strokeWidth=2;" edge="1" parent="1" source="XQaFh8cEbcPCIkuJs7Az-4">
          <mxGeometry width="50" height="50" relative="1" as="geometry">
            <mxPoint x="290" y="320" as="sourcePoint" />
            <mxPoint x="250" y="100" as="targetPoint" />
          </mxGeometry>
        </mxCell>
        <mxCell id="XQaFh8cEbcPCIkuJs7Az-9" value="" style="endArrow=none;html=1;rounded=0;entryX=0.5;entryY=1;entryDx=0;entryDy=0;exitX=0.5;exitY=0;exitDx=0;exitDy=0;strokeWidth=2;" edge="1" parent="1" source="XQaFh8cEbcPCIkuJs7Az-3" target="XQaFh8cEbcPCIkuJs7Az-1">
          <mxGeometry width="50" height="50" relative="1" as="geometry">
            <mxPoint x="250" y="350" as="sourcePoint" />
            <mxPoint x="300" y="300" as="targetPoint" />
          </mxGeometry>
        </mxCell>
        <mxCell id="XQaFh8cEbcPCIkuJs7Az-10" value="" style="endArrow=none;html=1;rounded=0;strokeWidth=2;" edge="1" parent="1">
          <mxGeometry width="50" height="50" relative="1" as="geometry">
            <mxPoint x="250" y="130" as="sourcePoint" />
            <mxPoint x="380" y="130" as="targetPoint" />
          </mxGeometry>
        </mxCell>
        <mxCell id="XQaFh8cEbcPCIkuJs7Az-12" value="&lt;span style=&quot;font-size: 20px; text-align: left;&quot;&gt;frecuenta_bar_moe(X)&lt;/span&gt;" style="text;html=1;align=center;verticalAlign=middle;whiteSpace=wrap;rounded=0;" vertex="1" parent="1">
          <mxGeometry x="89" y="480" width="330" height="30" as="geometry" />
        </mxCell>
        <mxCell id="XQaFh8cEbcPCIkuJs7Az-13" value="&lt;span style=&quot;text-align: left;&quot;&gt;&lt;font style=&quot;font-size: 20px;&quot;&gt;gusto(X, cervexa)&lt;/font&gt;&lt;/span&gt;" style="text;html=1;align=center;verticalAlign=middle;whiteSpace=wrap;rounded=0;" vertex="1" parent="1">
          <mxGeometry x="-45" y="570" width="190" height="30" as="geometry" />
        </mxCell>
        <mxCell id="XQaFh8cEbcPCIkuJs7Az-14" value="&lt;span style=&quot;text-align: left;&quot;&gt;&lt;font style=&quot;font-size: 20px;&quot;&gt;home(X)&lt;/font&gt;&lt;/span&gt;" style="text;html=1;align=center;verticalAlign=middle;whiteSpace=wrap;rounded=0;" vertex="1" parent="1">
          <mxGeometry x="160" y="570" width="190" height="30" as="geometry" />
        </mxCell>
        <mxCell id="XQaFh8cEbcPCIkuJs7Az-15" value="&lt;span style=&quot;text-align: left;&quot;&gt;&lt;font style=&quot;font-size: 20px;&quot;&gt;deprimido(X)&lt;/font&gt;&lt;/span&gt;" style="text;html=1;align=center;verticalAlign=middle;whiteSpace=wrap;rounded=0;" vertex="1" parent="1">
          <mxGeometry x="385" y="570" width="190" height="30" as="geometry" />
        </mxCell>
        <mxCell id="XQaFh8cEbcPCIkuJs7Az-16" value="&lt;span style=&quot;text-align: left;&quot;&gt;&lt;font style=&quot;font-size: 20px;&quot;&gt;pai(X, _)&lt;/font&gt;&lt;/span&gt;" style="text;html=1;align=center;verticalAlign=middle;whiteSpace=wrap;rounded=0;" vertex="1" parent="1">
          <mxGeometry x="275" y="640" width="190" height="30" as="geometry" />
        </mxCell>
        <mxCell id="XQaFh8cEbcPCIkuJs7Az-17" value="&lt;span style=&quot;text-align: left;&quot;&gt;&lt;font style=&quot;font-size: 20px;&quot;&gt;traballa(X, central)&lt;/font&gt;&lt;/span&gt;" style="text;html=1;align=center;verticalAlign=middle;whiteSpace=wrap;rounded=0;" vertex="1" parent="1">
          <mxGeometry x="505" y="640" width="190" height="30" as="geometry" />
        </mxCell>
        <mxCell id="XQaFh8cEbcPCIkuJs7Az-18" value="" style="endArrow=none;html=1;rounded=0;entryX=0.5;entryY=1;entryDx=0;entryDy=0;exitX=0.5;exitY=0;exitDx=0;exitDy=0;strokeWidth=2;" edge="1" parent="1" source="XQaFh8cEbcPCIkuJs7Az-14" target="XQaFh8cEbcPCIkuJs7Az-12">
          <mxGeometry width="50" height="50" relative="1" as="geometry">
            <mxPoint x="375" y="590" as="sourcePoint" />
            <mxPoint x="425" y="540" as="targetPoint" />
          </mxGeometry>
        </mxCell>
        <mxCell id="XQaFh8cEbcPCIkuJs7Az-19" value="" style="endArrow=none;html=1;rounded=0;exitX=0.5;exitY=0;exitDx=0;exitDy=0;strokeWidth=2;" edge="1" parent="1" source="XQaFh8cEbcPCIkuJs7Az-15">
          <mxGeometry width="50" height="50" relative="1" as="geometry">
            <mxPoint x="375" y="590" as="sourcePoint" />
            <mxPoint x="255" y="510" as="targetPoint" />
          </mxGeometry>
        </mxCell>
        <mxCell id="XQaFh8cEbcPCIkuJs7Az-20" value="" style="endArrow=none;html=1;rounded=0;entryX=0.5;entryY=1;entryDx=0;entryDy=0;exitX=0.5;exitY=0;exitDx=0;exitDy=0;strokeWidth=2;" edge="1" parent="1" source="XQaFh8cEbcPCIkuJs7Az-13" target="XQaFh8cEbcPCIkuJs7Az-12">
          <mxGeometry width="50" height="50" relative="1" as="geometry">
            <mxPoint x="375" y="590" as="sourcePoint" />
            <mxPoint x="425" y="540" as="targetPoint" />
          </mxGeometry>
        </mxCell>
        <mxCell id="XQaFh8cEbcPCIkuJs7Az-21" value="" style="endArrow=none;html=1;rounded=0;strokeWidth=2;" edge="1" parent="1">
          <mxGeometry width="50" height="50" relative="1" as="geometry">
            <mxPoint x="365" y="540" as="sourcePoint" />
            <mxPoint x="155" y="540" as="targetPoint" />
          </mxGeometry>
        </mxCell>
        <mxCell id="XQaFh8cEbcPCIkuJs7Az-22" value="" style="endArrow=none;html=1;rounded=0;entryX=0.5;entryY=1;entryDx=0;entryDy=0;exitX=0.5;exitY=0;exitDx=0;exitDy=0;strokeWidth=2;" edge="1" parent="1" source="XQaFh8cEbcPCIkuJs7Az-16" target="XQaFh8cEbcPCIkuJs7Az-15">
          <mxGeometry width="50" height="50" relative="1" as="geometry">
            <mxPoint x="375" y="590" as="sourcePoint" />
            <mxPoint x="425" y="540" as="targetPoint" />
          </mxGeometry>
        </mxCell>
        <mxCell id="XQaFh8cEbcPCIkuJs7Az-23" value="" style="endArrow=none;html=1;rounded=0;entryX=0.5;entryY=1;entryDx=0;entryDy=0;exitX=0.5;exitY=0;exitDx=0;exitDy=0;strokeWidth=2;" edge="1" parent="1" source="XQaFh8cEbcPCIkuJs7Az-17" target="XQaFh8cEbcPCIkuJs7Az-15">
          <mxGeometry width="50" height="50" relative="1" as="geometry">
            <mxPoint x="375" y="590" as="sourcePoint" />
            <mxPoint x="425" y="540" as="targetPoint" />
          </mxGeometry>
        </mxCell>
        <mxCell id="XQaFh8cEbcPCIkuJs7Az-24" value="&lt;span style=&quot;text-align: left;&quot;&gt;&lt;font style=&quot;font-size: 20px;&quot;&gt;invitado_barbacoa_homer(X)&lt;/font&gt;&lt;/span&gt;" style="text;html=1;align=center;verticalAlign=middle;whiteSpace=wrap;rounded=0;" vertex="1" parent="1">
          <mxGeometry x="84" y="870" width="330" height="30" as="geometry" />
        </mxCell>
        <mxCell id="XQaFh8cEbcPCIkuJs7Az-25" value="&lt;span style=&quot;text-align: left;&quot;&gt;&lt;font style=&quot;font-size: 20px;&quot;&gt;amigo(X, marge)&lt;/font&gt;&lt;/span&gt;" style="text;html=1;align=center;verticalAlign=middle;whiteSpace=wrap;rounded=0;flipH=1;" vertex="1" parent="1">
          <mxGeometry x="-155" y="970" width="185" height="30" as="geometry" />
        </mxCell>
        <mxCell id="XQaFh8cEbcPCIkuJs7Az-26" value="&lt;span style=&quot;text-align: left;&quot;&gt;&lt;font style=&quot;font-size: 20px;&quot;&gt;carnivoro(X)&lt;/font&gt;&lt;/span&gt;" style="text;html=1;align=center;verticalAlign=middle;whiteSpace=wrap;rounded=0;flipH=1;" vertex="1" parent="1">
          <mxGeometry x="159" y="970" width="180" height="30" as="geometry" />
        </mxCell>
        <mxCell id="XQaFh8cEbcPCIkuJs7Az-28" value="&lt;span style=&quot;text-align: left;&quot;&gt;&lt;font style=&quot;font-size: 20px;&quot;&gt;amigo(X, homer)&lt;/font&gt;&lt;/span&gt;" style="text;html=1;align=center;verticalAlign=middle;whiteSpace=wrap;rounded=0;flipH=1;" vertex="1" parent="1">
          <mxGeometry x="480" y="970" width="180" height="30" as="geometry" />
        </mxCell>
        <mxCell id="XQaFh8cEbcPCIkuJs7Az-29" value="&lt;span style=&quot;text-align: left;&quot;&gt;&lt;font style=&quot;font-size: 20px;&quot;&gt;traballo(X, central)&lt;/font&gt;&lt;/span&gt;" style="text;html=1;align=center;verticalAlign=middle;whiteSpace=wrap;rounded=0;" vertex="1" parent="1">
          <mxGeometry x="620" y="1070" width="180" height="30" as="geometry" />
        </mxCell>
        <mxCell id="XQaFh8cEbcPCIkuJs7Az-30" value="&lt;span style=&quot;text-align: left;&quot;&gt;&lt;font style=&quot;font-size: 20px;&quot;&gt;gusta(X, cervexa)&lt;/font&gt;&lt;/span&gt;" style="text;html=1;align=center;verticalAlign=middle;whiteSpace=wrap;rounded=0;" vertex="1" parent="1">
          <mxGeometry x="380" y="1070" width="180" height="30" as="geometry" />
        </mxCell>
        <mxCell id="XQaFh8cEbcPCIkuJs7Az-32" value="&lt;span style=&quot;text-align: left;&quot;&gt;&lt;font style=&quot;font-size: 20px;&quot;&gt;muller(X)&lt;/font&gt;&lt;/span&gt;" style="text;html=1;align=center;verticalAlign=middle;whiteSpace=wrap;rounded=0;" vertex="1" parent="1">
          <mxGeometry x="-260" y="1070" width="185" height="30" as="geometry" />
        </mxCell>
        <mxCell id="XQaFh8cEbcPCIkuJs7Az-33" value="&lt;span style=&quot;text-align: left;&quot;&gt;&lt;font style=&quot;font-size: 20px;&quot;&gt;gusto(X, ler)&lt;/font&gt;&lt;/span&gt;" style="text;html=1;align=center;verticalAlign=middle;whiteSpace=wrap;rounded=0;" vertex="1" parent="1">
          <mxGeometry x="-85" y="1070" width="185" height="30" as="geometry" />
        </mxCell>
        <mxCell id="XQaFh8cEbcPCIkuJs7Az-34" value="&lt;font style=&quot;font-size: 20px;&quot;&gt;pai(X, _)&lt;/font&gt;" style="text;html=1;align=center;verticalAlign=middle;whiteSpace=wrap;rounded=0;" vertex="1" parent="1">
          <mxGeometry x="100" y="250" width="130" height="30" as="geometry" />
        </mxCell>
        <mxCell id="XQaFh8cEbcPCIkuJs7Az-35" value="&lt;font style=&quot;font-size: 20px;&quot;&gt;nai(X, _)&lt;/font&gt;" style="text;html=1;align=center;verticalAlign=middle;whiteSpace=wrap;rounded=0;" vertex="1" parent="1">
          <mxGeometry x="270" y="250" width="130" height="30" as="geometry" />
        </mxCell>
        <mxCell id="XQaFh8cEbcPCIkuJs7Az-36" value="" style="endArrow=none;html=1;rounded=0;entryX=0.5;entryY=1;entryDx=0;entryDy=0;exitX=0.5;exitY=0;exitDx=0;exitDy=0;strokeWidth=2;" edge="1" parent="1" source="XQaFh8cEbcPCIkuJs7Az-34" target="XQaFh8cEbcPCIkuJs7Az-3">
          <mxGeometry width="50" height="50" relative="1" as="geometry">
            <mxPoint x="230" y="260" as="sourcePoint" />
            <mxPoint x="280" y="210" as="targetPoint" />
          </mxGeometry>
        </mxCell>
        <mxCell id="XQaFh8cEbcPCIkuJs7Az-37" value="" style="endArrow=none;html=1;rounded=0;exitX=0.5;exitY=0;exitDx=0;exitDy=0;strokeWidth=2;" edge="1" parent="1" source="XQaFh8cEbcPCIkuJs7Az-35">
          <mxGeometry width="50" height="50" relative="1" as="geometry">
            <mxPoint x="210" y="350" as="sourcePoint" />
            <mxPoint x="250" y="180" as="targetPoint" />
          </mxGeometry>
        </mxCell>
        <mxCell id="XQaFh8cEbcPCIkuJs7Az-38" value="" style="endArrow=none;html=1;rounded=0;entryX=0.5;entryY=1;entryDx=0;entryDy=0;exitX=0.5;exitY=0;exitDx=0;exitDy=0;strokeWidth=2;" edge="1" parent="1" source="XQaFh8cEbcPCIkuJs7Az-26" target="XQaFh8cEbcPCIkuJs7Az-24">
          <mxGeometry width="50" height="50" relative="1" as="geometry">
            <mxPoint x="130" y="1090" as="sourcePoint" />
            <mxPoint x="180" y="1040" as="targetPoint" />
          </mxGeometry>
        </mxCell>
        <mxCell id="XQaFh8cEbcPCIkuJs7Az-39" value="" style="endArrow=none;html=1;rounded=0;entryX=0.5;entryY=1;entryDx=0;entryDy=0;exitX=0.5;exitY=0;exitDx=0;exitDy=0;strokeWidth=2;" edge="1" parent="1" source="XQaFh8cEbcPCIkuJs7Az-25" target="XQaFh8cEbcPCIkuJs7Az-24">
          <mxGeometry width="50" height="50" relative="1" as="geometry">
            <mxPoint x="140" y="1120" as="sourcePoint" />
            <mxPoint x="190" y="1070" as="targetPoint" />
          </mxGeometry>
        </mxCell>
        <mxCell id="XQaFh8cEbcPCIkuJs7Az-40" value="" style="endArrow=none;html=1;rounded=0;entryX=0.5;entryY=1;entryDx=0;entryDy=0;exitX=0.5;exitY=0;exitDx=0;exitDy=0;strokeWidth=2;" edge="1" parent="1" source="XQaFh8cEbcPCIkuJs7Az-28" target="XQaFh8cEbcPCIkuJs7Az-24">
          <mxGeometry width="50" height="50" relative="1" as="geometry">
            <mxPoint x="170" y="1140" as="sourcePoint" />
            <mxPoint x="220" y="1090" as="targetPoint" />
          </mxGeometry>
        </mxCell>
        <mxCell id="XQaFh8cEbcPCIkuJs7Az-41" value="" style="endArrow=none;html=1;rounded=0;entryX=0.5;entryY=1;entryDx=0;entryDy=0;exitX=0.5;exitY=0;exitDx=0;exitDy=0;strokeWidth=2;" edge="1" parent="1" source="XQaFh8cEbcPCIkuJs7Az-32" target="XQaFh8cEbcPCIkuJs7Az-25">
          <mxGeometry width="50" height="50" relative="1" as="geometry">
            <mxPoint x="140" y="1120" as="sourcePoint" />
            <mxPoint x="190" y="1070" as="targetPoint" />
          </mxGeometry>
        </mxCell>
        <mxCell id="XQaFh8cEbcPCIkuJs7Az-42" value="" style="endArrow=none;html=1;rounded=0;entryX=0.5;entryY=1;entryDx=0;entryDy=0;exitX=0.5;exitY=0;exitDx=0;exitDy=0;strokeWidth=2;" edge="1" parent="1" source="XQaFh8cEbcPCIkuJs7Az-33" target="XQaFh8cEbcPCIkuJs7Az-25">
          <mxGeometry width="50" height="50" relative="1" as="geometry">
            <mxPoint x="130" y="1120" as="sourcePoint" />
            <mxPoint x="180" y="1070" as="targetPoint" />
          </mxGeometry>
        </mxCell>
        <mxCell id="XQaFh8cEbcPCIkuJs7Az-43" value="" style="endArrow=none;html=1;rounded=0;entryX=0.5;entryY=1;entryDx=0;entryDy=0;exitX=0.5;exitY=0;exitDx=0;exitDy=0;strokeWidth=2;" edge="1" parent="1" source="XQaFh8cEbcPCIkuJs7Az-30" target="XQaFh8cEbcPCIkuJs7Az-28">
          <mxGeometry width="50" height="50" relative="1" as="geometry">
            <mxPoint x="180" y="1120" as="sourcePoint" />
            <mxPoint x="230" y="1070" as="targetPoint" />
          </mxGeometry>
        </mxCell>
        <mxCell id="XQaFh8cEbcPCIkuJs7Az-44" value="" style="endArrow=none;html=1;rounded=0;entryX=0.5;entryY=1;entryDx=0;entryDy=0;exitX=0.5;exitY=0;exitDx=0;exitDy=0;strokeWidth=2;" edge="1" parent="1" source="XQaFh8cEbcPCIkuJs7Az-29" target="XQaFh8cEbcPCIkuJs7Az-28">
          <mxGeometry width="50" height="50" relative="1" as="geometry">
            <mxPoint x="200" y="1110" as="sourcePoint" />
            <mxPoint x="250" y="1060" as="targetPoint" />
          </mxGeometry>
        </mxCell>
        <mxCell id="XQaFh8cEbcPCIkuJs7Az-45" value="" style="endArrow=none;html=1;rounded=0;strokeWidth=2;" edge="1" parent="1">
          <mxGeometry width="50" height="50" relative="1" as="geometry">
            <mxPoint x="250" y="930" as="sourcePoint" />
            <mxPoint x="110" y="930" as="targetPoint" />
          </mxGeometry>
        </mxCell>
        <mxCell id="XQaFh8cEbcPCIkuJs7Az-46" value="" style="endArrow=none;html=1;rounded=0;strokeWidth=2;" edge="1" parent="1">
          <mxGeometry width="50" height="50" relative="1" as="geometry">
            <mxPoint x="-120" y="1040" as="sourcePoint" />
            <mxPoint x="-20" y="1040" as="targetPoint" />
          </mxGeometry>
        </mxCell>
        <mxCell id="XQaFh8cEbcPCIkuJs7Az-47" value="" style="endArrow=none;html=1;rounded=0;strokeWidth=2;" edge="1" parent="1">
          <mxGeometry width="50" height="50" relative="1" as="geometry">
            <mxPoint x="630" y="1030" as="sourcePoint" />
            <mxPoint x="530" y="1030" as="targetPoint" />
          </mxGeometry>
        </mxCell>
        <mxCell id="XQaFh8cEbcPCIkuJs7Az-48" value="&lt;span style=&quot;text-align: left;&quot;&gt;&lt;font style=&quot;font-size: 20px;&quot;&gt;gusto(X, carne)&lt;/font&gt;&lt;/span&gt;" style="text;html=1;align=center;verticalAlign=middle;whiteSpace=wrap;rounded=0;flipH=1;" vertex="1" parent="1">
          <mxGeometry x="159" y="1070" width="180" height="30" as="geometry" />
        </mxCell>
        <mxCell id="XQaFh8cEbcPCIkuJs7Az-50" value="" style="endArrow=none;html=1;rounded=0;entryX=0.5;entryY=1;entryDx=0;entryDy=0;exitX=0.5;exitY=0;exitDx=0;exitDy=0;strokeWidth=2;" edge="1" parent="1" source="XQaFh8cEbcPCIkuJs7Az-48" target="XQaFh8cEbcPCIkuJs7Az-26">
          <mxGeometry width="50" height="50" relative="1" as="geometry">
            <mxPoint x="210" y="1180" as="sourcePoint" />
            <mxPoint x="260" y="1130" as="targetPoint" />
          </mxGeometry>
        </mxCell>
      </root>
    </mxGraphModel>
  </diagram>
</mxfile>
